<svg xmlns="http://www.w3.org/2000/svg" viewBox="0 0 50.74 10.194"><g fill="#231f20"><path d="m21.653.905-21.656.627 21.656.4zM21.653 2.503l-17.76.627 17.76.4zM21.653 4.196l-13.957.626 13.957.4zM21.653 5.794l-10.149.628 10.15.398z"/><path d="M26.08.206h-4.733V7.42h8.816V5.03h-3.777V.205zm-.305.612V5.64h3.776v1.167h-7.592V.818z"/><path d="M43.2.005c-1.85 0-3.412.29-4.603.814v-.64h-10.51V2.61h2.949v4.838h4.357V2.61h1.158c-.132.3-.224.608-.224.933v.458c0 2.116 2.761 3.538 6.873 3.538h.66c4.112 0 6.875-1.422 6.875-3.538v-.458c0-2.117-2.763-3.538-6.875-3.538zm-4.764 1.547C39.573.94 41.22.617 43.2.617h.66c4.327 0 6.264 1.47 6.264 2.926v.458c0 1.457-1.938 2.926-6.264 2.926h-.66c-4.325 0-6.261-1.47-6.261-2.926v-.458c0-.372.122-.728.363-1.059l.353-.486h-2.873v4.839h-3.134V1.998H28.7V.79h9.285v1.004z"/><path d="M43.341 1.765c-.857 0-1.554.696-1.554 1.55v1.022c0 .853.697 1.548 1.554 1.548h.346c.855 0 1.551-.695 1.551-1.548V3.314c0-.853-.696-1.549-1.55-1.549zM42.4 4.337V3.314a.94.94 0 0 1 .942-.937h.346c.518 0 .94.42.94.937v1.023a.94.94 0 0 1-.94.936h-.346a.94.94 0 0 1-.942-.936M21.413 10.161V8.44h.23v1.579h1.278v.143zM23.223 10.161v-1.73h.229v1.73zM23.971 8.44h.26l1.402 1.515h.008V8.44h.228v1.722h-.288l-1.373-1.488h-.009v1.488h-.228zM26.373 10.161V8.44h1.511v.143h-1.28v.617h1.231v.144h-1.232v.675h1.335v.143zM28.6 9.554l.56-.97.549.97zm-.34.609.267-.465h1.264l.271.465h.25L29.298 8.44h-.269l-1.007 1.723zM30.755 9.198v-.615h.514c.243 0 .701-.024.701.308 0 .294-.401.307-.725.307zm0 .143h.63c.461 0 .496.07.55.463a1 1 0 0 0 .087.358h.264c-.101-.104-.087-.233-.133-.512-.032-.2-.102-.348-.426-.385v-.004c.295-.05.49-.185.49-.37 0-.165-.085-.289-.262-.36-.193-.08-.376-.091-.598-.091h-.83v1.722h.228zM33.919 8.584h-.821v-.143h1.86v.143h-.806l-.003 1.58h-.227zM35.249 9.554l.56-.97.55.97zm-.341.609.267-.465h1.266l.27.465h.249L35.947 8.44h-.268l-1.008 1.723zM37.394 8.584h.555c.343 0 .645.074.645.344s-.302.343-.645.343h-.555zm0 1.58v-.75h.408c.49.008 1.039-.076 1.039-.486s-.55-.494-1.04-.487h-.637v1.722zM39.147 10.161V8.44h1.509v.143h-1.28v.617h1.23v.144h-1.23v.675h1.333v.143zM41.006 9.34h.773v-.144h-.773zM42.35 9.3c0-.377.254-.753.888-.753.633 0 .887.376.887.753s-.254.754-.887.754c-.634 0-.888-.377-.888-.754m2.021 0c0-.537-.404-.897-1.133-.897-.73 0-1.135.36-1.135.897s.405.897 1.135.897c.729 0 1.133-.36 1.133-.897M45.01 8.584h.556c.342 0 .644.074.644.344s-.302.343-.644.343h-.556zm0 1.58v-.75h.408c.49.008 1.04-.076 1.04-.486s-.55-.494-1.04-.487h-.638v1.722zM46.767 10.161V8.44h1.51v.143h-1.283v.617h1.234v.144h-1.234v.675h1.335v.143zM48.703 8.44h.26l1.402 1.515h.007V8.44h.23v1.722h-.289L48.94 8.674h-.008v1.488h-.229z"/></g></svg>