<svg xmlns="http://www.w3.org/2000/svg">
<defs><style>.icon{display:none}.icon:target{display:inline}</style></defs>
<svg id="error" class="icon" viewBox="0 0 24 24" fill="currentColor"><path d="M15.936 2.50098L21.501 8.06595V15.936L15.936 21.501H8.06595L2.50098 15.936V8.06595L8.06595 2.50098H15.936ZM11.0002 15.0002V17.0002H13.0002V15.0002H11.0002ZM11.0002 7.00024V13.0002H13.0002V7.00024H11.0002Z"/></svg>
<svg id="info" class="icon" viewBox="0 0 24 24" fill="currentColor"><path d="M12 22C6.47715 22 2 17.5228 2 12C2 6.47715 6.47715 2 12 2C17.5228 2 22 6.47715 22 12C22 17.5228 17.5228 22 12 22ZM11 11V17H13V11H11ZM11 7V9H13V7H11Z"/></svg>
<svg id="success" class="icon" viewBox="0 0 24 24" fill="currentColor"><path d="M12 22C17.5228 22 22 17.5228 22 12C22 6.47715 17.5228 2 12 2C6.47715 2 2 6.47715 2 12C2 17.5228 6.47715 22 12 22ZM17.4571 9.45711L11 15.9142L6.79289 11.7071L8.20711 10.2929L11 13.0858L16.0429 8.04289L17.4571 9.45711Z"/></svg>
<svg id="warning" class="icon" viewBox="0 0 24 24" fill="currentColor"><path d="M12.8659 3.00017L22.3922 19.5002C22.6684 19.9785 22.5045 20.5901 22.0262 20.8662C21.8742 20.954 21.7017 21.0002 21.5262 21.0002H2.47363C1.92135 21.0002 1.47363 20.5525 1.47363 20.0002C1.47363 19.8246 1.51984 19.6522 1.60761 19.5002L11.1339 3.00017C11.41 2.52187 12.0216 2.358 12.4999 2.63414C12.6519 2.72191 12.7782 2.84815 12.8659 3.00017ZM10.9999 16.0002V18.0002H12.9999V16.0002H10.9999ZM10.9999 9.00017V14.0002H12.9999V9.00017H10.9999Z"/></svg>
<svg id="home" class="icon" viewBox="0 0 24 24" fill="currentColor"><path d="M20 20C20 20.5523 19.5523 21 19 21H5C4.44772 21 4 20.5523 4 20V11L1 11L11.3273 1.6115C11.7087 1.26475 12.2913 1.26475 12.6727 1.6115L23 11L20 11V20ZM11 13V19H13V13H11Z"/></svg>
<svg id="notification" class="icon" viewBox="0 0 24 24" fill="currentColor"><path d="M22 20H2V18H3V11.0314C3 6.04348 7.02944 2 12 2C16.9706 2 21 6.04348 21 11.0314V18H22V20ZM9.5 21H14.5C14.5 22.3807 13.3807 23.5 12 23.5C10.6193 23.5 9.5 22.3807 9.5 21Z"/></svg>
<svg id="user" class="icon" viewBox="0 0 24 24" fill="currentColor"><path d="M4 22C4 17.5817 7.58172 14 12 14C16.4183 14 20 17.5817 20 22H4ZM12 13C8.685 13 6 10.315 6 7C6 3.685 8.685 1 12 1C15.315 1 18 3.685 18 7C18 10.315 15.315 13 12 13Z"/></svg>
</svg>